<?xml version="1.0" encoding="UTF-8" standalone="no"?>
<svg
   height="24px"
   viewBox="0 0 24 24"
   width="24px"
   fill="#000000"
   version="1.1"
   id="svg6"
   sodipodi:docname="show_questions (copy).svg"
   inkscape:version="1.1.1 (eb90963e84, 2021-10-02)"
   xmlns:inkscape="http://www.inkscape.org/namespaces/inkscape"
   xmlns:sodipodi="http://sodipodi.sourceforge.net/DTD/sodipodi-0.dtd"
   xmlns="http://www.w3.org/2000/svg"
   xmlns:svg="http://www.w3.org/2000/svg">
  <defs
     id="defs10" />
  <sodipodi:namedview
     id="namedview8"
     pagecolor="#ffffff"
     bordercolor="#666666"
     borderopacity="1.0"
     inkscape:pageshadow="2"
     inkscape:pageopacity="0.0"
     inkscape:pagecheckerboard="0"
     showgrid="false"
     inkscape:zoom="34.266395"
     inkscape:cx="3.6916636"
     inkscape:cy="17.34936"
     inkscape:window-width="2488"
     inkscape:window-height="1376"
     inkscape:window-x="72"
     inkscape:window-y="27"
     inkscape:window-maximized="1"
     inkscape:current-layer="layer1" />
  <g
     inkscape:groupmode="layer"
     id="layer2"
     inkscape:label="Back"
     style="display:none">
    <rect
       style="display:inline;fill:#ff0000;stroke-width:1.34922"
       id="rect714"
       width="24"
       height="24"
       x="0"
       y="0" />
  </g>
  <path
     d="M0 0h24v24H0z"
     fill="none"
     id="path2" />
  <g
     id="g62895"
     transform="translate(60.933928,18.055814)"
     style="fill:#000000">
    <rect
       fill="none"
       height="24"
       width="24"
       id="rect62893"
       x="0"
       y="0" />
  </g>
  <path
     d="m -6.362198,19.321763 1.41,-1.41 -18.370001,-18.38000028 -1.42,1.41 z"
     id="path62897-0-3"
     sodipodi:nodetypes="ccccc"
     style="fill:#ffffff" />
  <rect
     style="fill:#ffffff"
     id="rect712"
     width="15.833145"
     height="13.693351"
     x="-28.869871"
     y="-8.3530769" />
  <g
     inkscape:groupmode="layer"
     id="layer1"
     inkscape:label="Front"
     style="display:inline">
    <path
       id="path439"
       d="m 15.8125,13 5.183594,5.185547 V 13 Z m -2.816406,0.0078 V 21 h 7.992187 z" />
    <path
       d="m 3,13 h 8 v 8 H 3 Z"
       id="path437" />
    <path
       id="path435"
       d="m 13,3 v 7.185547 L 13.814453,11 H 21 V 3 Z" />
    <path
       id="path4"
       d="M 5.8203125,3 11,8.1835938 V 3 Z M 3,3.0097656 V 11 h 7.990234 z" />
    <g
       aria-label="A"
       id="text5693"
       style="font-size:5.33333px;line-height:1.25" />
    <g
       aria-label="B"
       id="text5693-4"
       style="font-size:5.33333px">
      <path
         d="m 16.331105,6.8801411 v 1.4244783 h 0.84375 q 0.424479,0 0.627604,-0.1744791 0.205729,-0.1770832 0.205729,-0.5390621 0,-0.3645831 -0.205729,-0.536458 -0.203125,-0.1744791 -0.627604,-0.1744791 z m 0,-1.5989574 V 6.453058 h 0.778646 q 0.385416,0 0.572916,-0.1432291 0.190104,-0.1458332 0.190104,-0.442708 0,-0.2942707 -0.190104,-0.4401039 -0.1875,-0.1458333 -0.572916,-0.1458333 z M 15.805064,4.8488923 h 1.343749 q 0.601562,0 0.927083,0.2499999 0.325521,0.2499998 0.325521,0.710937 0,0.3567707 -0.166667,0.567708 -0.166667,0.2109374 -0.489583,0.2630207 0.388021,0.083333 0.601562,0.3489581 0.216146,0.2630207 0.216146,0.6588538 0,0.520833 -0.354167,0.804687 -0.354166,0.283854 -1.007812,0.283854 h -1.395832 z"
         style="fill:#ffffff"
         id="path4986" />
    </g>
    <g
       aria-label="C"
       id="text5693-1"
       style="font-size:5.33333px;line-height:1.25">
      <path
         d="m 8.2853271,15.365768 v 0.554687 Q 8.0197023,15.67306 7.7176191,15.550664 7.4181402,15.428268 7.0795987,15.428268 q -0.6666663,0 -1.0208327,0.408854 -0.3541665,0.40625 -0.3541665,1.177083 0,0.768228 0.3541665,1.177082 0.3541664,0.40625 1.0208327,0.40625 0.3385415,0 0.6380204,-0.122396 0.3020832,-0.122396 0.567708,-0.369791 v 0.549479 q -0.2760415,0.187499 -0.5859371,0.281249 -0.3072915,0.09375 -0.6510413,0.09375 -0.882812,0 -1.3906242,-0.539062 -0.5078122,-0.541666 -0.5078122,-1.476561 0,-0.9375 0.5078122,-1.476562 0.5078122,-0.541666 1.3906242,-0.541666 0.3489581,0 0.6562496,0.09375 0.3098957,0.09115 0.5807288,0.276041 z"
         style="fill:#ffffff"
         id="path910" />
    </g>
    <g
       aria-label="D"
       id="text5693-7"
       style="font-size:5.33333px;line-height:1.25" />
    <path
       d="M 19.96,22.79 21.37,21.38 2.9999995,3 l -1.42,1.41 z"
       id="path62897"
       sodipodi:nodetypes="ccccc"
       style="fill:#000000" />
  </g>
</svg>
