<?xml version="1.0" encoding="UTF-8" standalone="no"?>
<svg
   enable-background="new 0 0 24 24"
   height="24px"
   viewBox="0 0 24 24"
   width="24px"
   fill="#000000"
   version="1.1"
   id="svg10"
   sodipodi:docname="hide_question.svg"
   inkscape:version="1.1.1 (eb90963e84, 2021-10-02)"
   xmlns:inkscape="http://www.inkscape.org/namespaces/inkscape"
   xmlns:sodipodi="http://sodipodi.sourceforge.net/DTD/sodipodi-0.dtd"
   xmlns="http://www.w3.org/2000/svg"
   xmlns:svg="http://www.w3.org/2000/svg">
  <defs
     id="defs14" />
  <sodipodi:namedview
     id="namedview12"
     pagecolor="#ffffff"
     bordercolor="#666666"
     borderopacity="1.0"
     inkscape:pageshadow="2"
     inkscape:pageopacity="0.0"
     inkscape:pagecheckerboard="0"
     showgrid="false"
     inkscape:zoom="36.375"
     inkscape:cx="11.986254"
     inkscape:cy="12"
     inkscape:window-width="2488"
     inkscape:window-height="1376"
     inkscape:window-x="72"
     inkscape:window-y="27"
     inkscape:window-maximized="1"
     inkscape:current-layer="layer2" />
  <g
     inkscape:groupmode="layer"
     id="layer1"
     inkscape:label="back"
     style="display:none">
    <rect
       style="fill:#ff0000"
       id="rect52"
       width="24"
       height="24"
       x="0"
       y="0" />
  </g>
  <g
     inkscape:groupmode="layer"
     id="layer2"
     inkscape:label="front" />
  <g
     id="g4">
    <rect
       fill="none"
       height="24"
       width="24"
       id="rect2" />
  </g>
  <g
     id="g8">
    <path
       id="path6"
       d="M 11.990234 3 C 10.165855 3 8.7160199 3.7743905 7.7265625 4.8984375 L 9.7148438 6.8886719 C 10.191571 6.2341119 10.919343 5.7109375 12 5.7109375 C 14.58 5.7109375 15.089688 8.1201563 14.179688 9.4101562 C 13.919531 9.7822403 13.600484 10.115279 13.263672 10.439453 L 15.097656 12.271484 C 15.612656 11.772734 16.200781 11.195547 16.800781 10.310547 C 17.880781 8.7105469 17.469531 6.5601563 16.769531 5.4101562 C 15.949531 4.0701563 14.340234 3 11.990234 3 z M 6.6542969 6.6542969 C 6.6142935 6.7557271 6.573398 6.857931 6.5390625 6.9609375 L 7.2675781 7.2675781 L 6.6542969 6.6542969 z M 11.828125 11.828125 C 11.54179 12.140477 11.278889 12.473087 11.070312 12.849609 C 10.460313 13.949609 10.579844 15.22 10.589844 16 L 13.480469 16 C 13.480469 14.571384 13.575316 14.241505 13.806641 13.806641 L 11.828125 11.828125 z M 12 18 C 10.9 18 10 18.9 10 20 C 10 21.1 10.9 22 12 22 C 13.1 22 14 21.1 14 20 C 14 18.9 13.1 18 12 18 z " />
  </g>
  <path
     d="M 19.78,22.6 21.19,21.19 2.8199998,2.81 l -1.42,1.41 z"
     id="path62897"
     sodipodi:nodetypes="ccccc"
     style="fill:#000000" />
</svg>
